<svg width="20" height="20" viewBox="0 0 20 20" fill="none" xmlns="http://www.w3.org/2000/svg">
<path d="M10 14.3958L6.5417 16.4792C6.38892 16.5764 6.2292 16.618 6.06253 16.6042C5.89586 16.5903 5.75003 16.5347 5.62503 16.4375C5.50003 16.3403 5.40281 16.2189 5.33336 16.0733C5.26392 15.9278 5.25003 15.7644 5.2917 15.5833L6.20836 11.6458L3.14586 8.99999C3.00697 8.87499 2.92031 8.73249 2.88586 8.57249C2.85142 8.41249 2.8617 8.25638 2.9167 8.10416C2.9717 7.95193 3.05503 7.82693 3.1667 7.72916C3.27836 7.63138 3.43114 7.56888 3.62503 7.54166L7.6667 7.18749L9.2292 3.47916C9.29864 3.31249 9.40642 3.18749 9.55253 3.10416C9.69864 3.02082 9.84781 2.97916 10 2.97916C10.1523 2.97916 10.3014 3.02082 10.4475 3.10416C10.5936 3.18749 10.7014 3.31249 10.7709 3.47916L12.3334 7.18749L16.375 7.54166C16.5695 7.56943 16.7223 7.63193 16.8334 7.72916C16.9445 7.82638 17.0278 7.95138 17.0834 8.10416C17.1389 8.25694 17.1495 8.41332 17.115 8.57332C17.0806 8.73332 16.9936 8.87555 16.8542 8.99999L13.7917 11.6458L14.7084 15.5833C14.75 15.7639 14.7361 15.9272 14.6667 16.0733C14.5973 16.2194 14.5 16.3408 14.375 16.4375C14.25 16.5342 14.1042 16.5897 13.9375 16.6042C13.7709 16.6186 13.6111 16.5769 13.4584 16.4792L10 14.3958Z" fill="#4C4C4C"/>
</svg>
